#!OML:ASF H:\Dans Jumps\Project 1\Capture day 1\Session 1\subject.ASF
:FULLY-SPECIFIED
:DEGREES
592
root 0.463578 17.5746 10.8937 10.4083 -2.33642 -2.7444
lowerback 3.93253 0.663201 0.18895
upperback 5.69014 0.841639 1.46259
thorax 3.63901 0.392141 1.39568
lowerneck -14.9872 0.923445 -1.65455
upperneck 34.3657 1.71752 0.444642
head 14.254 0.57864 0.750913
rclavicle 1.08835e-014 1.22253e-014
rhumerus -15.4918 -5.91002 -86.8031
rradius 25.821
rwrist 29.7715
rhand -21.6566 -26.9393
rfingers 7.12502
rthumb 4.74037 -56.8663
lclavicle 1.08835e-014 1.22253e-014
lhumerus -15.1592 -10.318 91.6801
lradius 22.3073
lwrist 9.68469
lhand -27.4852 -7.36086
lfingers 7.12502
lthumb -0.888696 22.617
rfemur -20.9574 -1.34847 21.8863
rtibia 26.7232
rfoot -14.9688 0.467195
rtoes 10.9653
lfemur -18.3601 6.83051 -17.8817
ltibia 25.4775
lfoot -12.1891 9.6295
ltoes -13.7832
593
root 0.462948 17.5745 10.8917 10.3951 -2.34291 -2.74043
lowerback 3.92698 0.662222 0.193925
upperback 5.69234 0.840326 1.46193
thorax 3.64453 0.391666 1.39233
lowerneck -14.9991 0.9224 -1.65605
upperneck 34.3582 1.71846 0.439447
head 14.2534 0.578174 0.749257
rclavicle -3.42904e-015 5.56597e-015
rhumerus -15.4619 -5.88017 -86.8444
rradius 25.8618
rwrist 29.7384
rhand -21.6622 -26.9356
rfingers 7.12502
rthumb 4.73491 -56.8627
lclavicle -3.42904e-015 5.56597e-015
lhumerus -15.1432 -10.3828 91.7104
lradius 22.3494
lwrist 9.68331
lhand -27.5204 -7.48504
lfingers 7.12502
lthumb -0.922724 22.4927
rfemur -20.9516 -1.35776 21.8849
rtibia 26.7249
rfoot -14.9682 0.481408
rtoes 10.9717
lfemur -18.35 6.82822 -17.8829
ltibia 25.4744
lfoot -12.1737 9.63602
ltoes -13.8205
594
root 0.462134 17.5746 10.8897 10.3819 -2.35165 -2.73982
lowerback 3.92166 0.662385 0.19963
upperback 5.69385 0.840542 1.46159
thorax 3.64917 0.391979 1.38887
lowerneck -15.0013 0.92358 -1.65207
upperneck 34.3459 1.72237 0.429513
head 14.2484 0.579139 0.745055
rclavicle -1.14301e-014 -1.26228e-014
rhumerus -15.4334 -5.84827 -86.8886
rradius 25.9092
rwrist 29.7024
rhand -21.6587 -26.9389
rfingers 7.12502
rthumb 4.73833 -56.8659
lclavicle -1.14301e-014 -1.26228e-014
lhumerus -15.1264 -10.4672 91.7405
lradius 22.3858
lwrist 9.71337
lhand -27.5606 -7.58093
lfingers 7.12502
lthumb -0.961487 22.3967
rfemur -20.9442 -1.36232 21.8876
rtibia 26.7233
rfoot -14.9664 0.493005
rtoes 10.9734
lfemur -18.3398 6.82737 -17.8799
ltibia 25.4723
lfoot -12.1457 9.64589
ltoes -13.909
595
root 0.461286 17.5746 10.8877 10.3685 -2.35905 -2.74178
lowerback 3.91631 0.662484 0.20796
upperback 5.69526 0.840694 1.46171
thorax 3.65377 0.392353 1.38442
lowerneck -15.0004 0.92479 -1.64936
upperneck 34.3366 1.72669 0.419631
head 14.2441 0.580098 0.741169
rclavicle 8.64713e-015 -1.13307e-014
rhumerus -15.4095 -5.80085 -86.9344
rradius 25.9655
rwrist 29.6515
rhand -21.6579 -26.9416
rfingers 7.12502
rthumb 4.73908 -56.8686
lclavicle 8.64713e-015 -1.13307e-014
lhumerus -15.1119 -10.5598 91.7722
lradius 22.4163
lwrist 9.76269
lhand -27.6012 -7.65316
lfingers 7.12502
lthumb -1.00073 22.3242
rfemur -20.9353 -1.36711 21.8935
rtibia 26.7188
rfoot -14.9632 0.503195
rtoes 10.9789
lfemur -18.3318 6.82641 -17.8735
ltibia 25.4752
lfoot -12.1493 9.64835
ltoes -13.8588
596
root 0.460469 17.5747 10.8856 10.3569 -2.36619 -2.74635
lowerback 3.90947 0.66177 0.218804
upperback 5.69537 0.839782 1.46245
thorax 3.65789 0.392285 1.37921
lowerneck -14.9958 0.925578 -1.64966
upperneck 34.329 1.73033 0.41228
head 14.2397 0.580703 0.738707
rclavicle 4.62174e-015 -3.27995e-015
rhumerus -15.393 -5.72176 -86.9829
rradius 26.0314
rwrist 29.5707
rhand -21.6538 -26.9515
rfingers 7.12502
rthumb 4.74308 -56.8785
lclavicle 4.62174e-015 -3.27995e-015
lhumerus -15.1022 -10.6665 91.8065
lradius 22.4426
lwrist 9.85021
lhand -27.5972 -7.61568
lfingers 7.12502
lthumb -0.996869 22.3617
rfemur -20.9275 -1.37227 21.9025
rtibia 26.7132
rfoot -14.9586 0.514396
rtoes 10.9797
lfemur -18.3273 6.82581 -17.8647
ltibia 25.481
lfoot -12.1351 9.65622
ltoes -13.8921
597
root 0.459627 17.5747 10.8836 10.3468 -2.37287 -2.75337
lowerback 3.90285 0.660477 0.231639
upperback 5.69205 0.838146 1.46422
thorax 3.65833 0.391933 1.37391
lowerneck -14.986 0.924386 -1.65528
upperneck 34.325 1.73095 0.409569
head 14.2357 0.579929 0.738558
rclavicle -1.2921e-014 -1.05356e-014
rhumerus -15.3914 -5.60899 -87.0316
rradius 26.1098
rwrist 29.4604
rhand -21.644 -26.9696
rfingers 7.12502
rthumb 4.75249 -56.8963
lclavicle -1.2921e-014 -1.05356e-014
lhumerus -15.0963 -10.7786 91.8423
lradius 22.4621
lwrist 9.95377
lhand -27.5746 -7.53313
lfingers 7.12502
lthumb -0.975077 22.4444
rfemur -20.9211 -1.37576 21.9142
rtibia 26.7078
rfoot -14.9533 0.524143
rtoes 10.9805
lfemur -18.326 6.82673 -17.8531
ltibia 25.4899
lfoot -12.1327 9.66075
ltoes -13.8704
598
root 0.458709 17.5748 10.8816 10.3365 -2.37895 -2.75448
lowerback 3.89517 0.658625 0.238465
upperback 5.68908 0.835722 1.46436
thorax 3.65969 0.390989 1.37031
lowerneck -14.9747 0.920872 -1.66696
upperneck 34.3228 1.72726 0.414511
head 14.232 0.577548 0.741879
rclavicle -8.19987e-015 -1.19271e-015
rhumerus -15.398 -5.47411 -87.0811
rradius 26.1987
rwrist 29.3332
rhand -21.6355 -26.9885
rfingers 7.12502
rthumb 4.76075 -56.9151
lclavicle -8.19987e-015 -1.19271e-015
lhumerus -15.0881 -10.8831 91.8764
lradius 22.4784
lwrist 10.0509
lhand -27.5439 -7.44172
lfingers 7.12502
lthumb -0.94541 22.5359
rfemur -20.9152 -1.37877 21.9194
rtibia 26.7038
rfoot -14.9473 0.533009
rtoes 10.9837
lfemur -18.3237 6.82624 -17.8478
ltibia 25.4969
lfoot -12.1397 9.66274
ltoes -13.7976
599
root 0.457785 17.5747 10.8796 10.3277 -2.38518 -2.75849
lowerback 3.88861 0.655598 0.247112
upperback 5.68318 0.831762 1.46621
thorax 3.65739 0.389329 1.36742
lowerneck -14.9608 0.917291 -1.67916
upperneck 34.3225 1.72395 0.418316
head 14.2286 0.575083 0.744887
rclavicle -5.2181e-015 -1.11319e-014
rhumerus -15.4097 -5.31806 -87.1315
rradius 26.29
rwrist 29.1939
rhand -21.6308 -27.0111
rfingers 7.12502
rthumb 4.76523 -56.9375
lclavicle -5.2181e-015 -1.11319e-014
lhumerus -15.0835 -10.9669 91.9092
lradius 22.4918
lwrist 10.1273
lhand -27.515 -7.3635
lfingers 7.12502
lthumb -0.917487 22.6143
rfemur -20.9118 -1.38087 21.9278
rtibia 26.7016
rfoot -14.9404 0.541585
rtoes 10.9862
lfemur -18.3215 6.82653 -17.8393
ltibia 25.5011
lfoot -12.1458 9.66451
ltoes -13.729
600
root 0.456655 17.5748 10.8778 10.3149 -2.39354 -2.75312
lowerback 3.88784 0.653484 0.243795
upperback 5.67545 0.829005 1.46619
thorax 3.64976 0.38787 1.3692
lowerneck -14.9406 0.913233 -1.69448
upperneck 34.3209 1.71888 0.427311
head 14.2231 0.572209 0.75019
rclavicle -4.67144e-015 -9.74045e-015
rhumerus -15.4223 -5.17657 -87.1791
rradius 26.3774
rwrist 29.076
rhand -21.6186 -27.0236
rfingers 7.12502
rthumb 4.77708 -56.9497
lclavicle -4.67144e-015 -9.74045e-015
lhumerus -15.0857 -11.0199 91.9409
lradius 22.5076
lwrist 10.1634
lhand -27.4993 -7.32918
lfingers 7.12502
lthumb -0.902329 22.6487
rfemur -20.9046 -1.38059 21.9258
rtibia 26.7004
rfoot -14.9339 0.548685
rtoes 10.9927
lfemur -18.3121 6.82538 -17.8402
ltibia 25.501
lfoot -12.1737 9.66237
ltoes -13.558
601
root 0.455488 17.5749 10.8759 10.3032 -2.40075 -2.74879
lowerback 3.88708 0.65048 0.241685
upperback 5.66712 0.825088 1.46619
thorax 3.64154 0.385883 1.37031
lowerneck -14.9231 0.910713 -1.70662
upperneck 34.3202 1.71619 0.43343
head 14.2186 0.570341 0.754185
rclavicle -2.5345e-015 -1.09332e-014
rhumerus -15.4289 -5.03515 -87.2266
rradius 26.4546
rwrist 28.9647
rhand -21.6109 -27.0325
rfingers 7.12502
rthumb 4.78448 -56.9585
lclavicle -2.5345e-015 -1.09332e-014
lhumerus -15.0865 -11.0545 91.9687
lradius 22.519
lwrist 10.1732
lhand -27.5078 -7.35786
lfingers 7.12502
lthumb -0.910576 22.6199
rfemur -20.8985 -1.38189 21.9253
rtibia 26.6992
rfoot -14.9265 0.557379
rtoes 10.9988
lfemur -18.3027 6.8245 -17.8399
ltibia 25.4987
lfoot -12.1884 9.66238
ltoes -13.4529
602
root 0.454278 17.575 10.8741 10.2923 -2.4073 -2.75179
lowerback 3.88791 0.647374 0.246778
upperback 5.65845 0.8211 1.46788
thorax 3.63214 0.384104 1.36912
lowerneck -14.9143 0.911023 -1.70851
upperneck 34.3215 1.71853 0.428908
head 14.2172 0.570451 0.75298
rclavicle 5.51627e-015 1.08338e-014
rhumerus -15.4262 -4.9048 -87.2731
rradius 26.5187
rwrist 28.869
rhand -21.601 -27.0333
rfingers 7.12502
rthumb 4.79407 -56.9591
lclavicle 5.51627e-015 1.08338e-014
lhumerus -15.0847 -11.0735 91.9934
lradius 22.5257
lwrist 10.1617
lhand -27.5314 -7.42826
lfingers 7.12502
lthumb -0.933373 22.5494
rfemur -20.8921 -1.38384 21.9335
rtibia 26.6972
rfoot -14.919 0.566545
rtoes 10.9979
lfemur -18.2922 6.82418 -17.8312
ltibia 25.4937
lfoot -12.1954 9.66289
ltoes -13.3792
603
root 0.452999 17.5751 10.8723 10.2826 -2.41427 -2.75624
lowerback 3.89145 0.644318 0.252321
upperback 5.64856 0.817225 1.46966
thorax 3.61996 0.382408 1.36771
lowerneck -14.9132 0.914019 -1.70381
upperneck 34.3254 1.72502 0.418786
head 14.2189 0.572365 0.749117
rclavicle 1.54555e-014 -1.36167e-014
rhumerus -15.4171 -4.78806 -87.3186
rradius 26.5716
rwrist 28.7902
rhand -21.5904 -27.0278
rfingers 7.12502
rthumb 4.80425 -56.9533
lclavicle 1.54555e-014 -1.36167e-014
lhumerus -15.081 -11.0863 92.0158
lradius 22.5259
lwrist 10.1363
lhand -27.5721 -7.53404
lfingers 7.12502
lthumb -0.972631 22.4435
rfemur -20.8866 -1.38419 21.9435
rtibia 26.6937
rfoot -14.91 0.575419
rtoes 10.9977
lfemur -18.2835 6.82538 -17.8207
ltibia 25.4895
lfoot -12.2091 9.66129
ltoes -13.2836
604
root 0.451748 17.5752 10.8704 10.2725 -2.41968 -2.76049
lowerback 3.89612 0.640696 0.258881
upperback 5.64014 0.812618 1.47087
thorax 3.60871 0.380391 1.36515
lowerneck -14.9222 0.919191 -1.69415
upperneck 34.3296 1.7347 0.405121
head 14.223 0.575768 0.74356
rclavicle -6.31141e-015 -6.75868e-015
rhumerus -15.4042 -4.67499 -87.3629
rradius 26.6211
rwrist 28.7158
rhand -21.5831 -27.0134
rfingers 7.12502
rthumb 4.81131 -56.9388
lclavicle -6.31141e-015 -6.75868e-015
lhumerus -15.0734 -11.0991 92.0366
lradius 22.5237
lwrist 10.1063
lhand -27.6034 -7.61517
lfingers 7.12502
lthumb -1.00288 22.3622
rfemur -20.8802 -1.38929 21.9535
rtibia 26.6895
rfoot -14.901 0.588526
rtoes 11.0009
lfemur -18.2749 6.82737 -17.8107
ltibia 25.4853
lfoot -12.1979 9.66337
ltoes -13.3074
605
root 0.450427 17.5753 10.8685 10.2623 -2.42535 -2.76502
lowerback 3.90203 0.637399 0.265884
upperback 5.63256 0.808473 1.47126
thorax 3.59765 0.378635 1.36149
lowerneck -14.937 0.923748 -1.68262
upperneck 34.331 1.74289 0.391757
head 14.2272 0.578825 0.737581
rclavicle 3.97569e-016 -1.68967e-015
rhumerus -15.388 -4.56749 -87.4074
rradius 26.6686
rwrist 28.6433
rhand -21.5765 -26.9918
rfingers 7.12502
rthumb 4.81766 -56.9171
lclavicle 3.97569e-016 -1.68967e-015
lhumerus -15.0693 -11.0985 92.0565
lradius 22.5218
lwrist 10.0581
lhand -27.6186 -7.65706
lfingers 7.12502
lthumb -1.01759 22.3203
rfemur -20.8748 -1.39151 21.9638
rtibia 26.687
rfoot -14.8936 0.598891
rtoes 11.0019
lfemur -18.2651 6.83183 -17.8
ltibia 25.4787
lfoot -12.1806 9.66386
ltoes -13.3526
